<?xml version="1.0" encoding="UTF-8" standalone="no"?>
<svg
   xmlns:dc="http://purl.org/dc/elements/1.1/"
   xmlns:cc="http://creativecommons.org/ns#"
   xmlns:rdf="http://www.w3.org/1999/02/22-rdf-syntax-ns#"
   xmlns:svg="http://www.w3.org/2000/svg"
   xmlns="http://www.w3.org/2000/svg"
   xmlns:xlink="http://www.w3.org/1999/xlink"
   xmlns:sodipodi="http://sodipodi.sourceforge.net/DTD/sodipodi-0.dtd"
   xmlns:inkscape="http://www.inkscape.org/namespaces/inkscape"
   inkscape:version="1.0beta2 (2b71d25, 2019-12-03)"
   height="102.72671"
   width="102.76646"
   sodipodi:docname="MakerVsVirus_Logo_SVG.svg"
   xml:space="preserve"
   viewBox="0 0 102.76646 102.72671"
   y="0px"
   x="0px"
   id="Ebene_1"
   version="1.1"><metadata
   id="metadata1366"><rdf:RDF><cc:Work
       rdf:about=""><dc:format>image/svg+xml</dc:format><dc:type
         rdf:resource="http://purl.org/dc/dcmitype/StillImage" /><dc:title></dc:title></cc:Work></rdf:RDF></metadata><defs
   id="defs1364" /><sodipodi:namedview
   inkscape:current-layer="Ebene_1"
   inkscape:window-maximized="0"
   inkscape:window-y="23"
   inkscape:window-x="0"
   inkscape:cy="51.363353"
   inkscape:cx="51.363353"
   inkscape:zoom="0.91582492"
   fit-margin-bottom="0"
   fit-margin-right="0"
   fit-margin-left="0"
   fit-margin-top="0"
   showgrid="false"
   id="namedview1362"
   inkscape:window-height="588"
   inkscape:window-width="941"
   inkscape:pageshadow="2"
   inkscape:pageopacity="0"
   guidetolerance="10"
   gridtolerance="10"
   objecttolerance="10"
   borderopacity="1"
   inkscape:document-rotation="0"
   bordercolor="#666666"
   pagecolor="#ffffff" />
<style
   id="style1349"
   type="text/css">
	.st0{clip-path:url(#SVGID_2_);fill:#0FA7D0;}
</style>
<g
   style="fill:#ffffff"
   transform="translate(-53.636647,-97.136647)"
   id="g1359">
	<defs
   id="defs1352">
		<rect
   y="0"
   x="0"
   height="297"
   width="210"
   id="SVGID_1_" />
	</defs>
	<clipPath
   id="SVGID_2_">
		<use
   height="100%"
   width="100%"
   y="0"
   x="0"
   id="use1354"
   style="overflow:visible"
   xlink:href="#SVGID_1_" />
	</clipPath>
	<path
   style="fill:#ffffff"
   inkscape:connector-curvature="0"
   id="path1357"
   clip-path="url(#SVGID_2_)"
   d="m 126.3,193.4 -3.4,-0.2 -2.5,-6.7 c -0.3,-0.8 -1.1,-1.1 -1.9,-0.9 -0.8,0.3 -1.1,1.1 -0.9,1.9 l 2.5,6.7 -2.5,2.4 c -0.6,0.6 -0.6,1.5 -0.1,2.1 0.6,0.6 1.5,0.6 2.1,0.1 l 2.7,-2.6 3.8,0.2 c 0.8,0 1.5,-0.6 1.5,-1.4 0.1,-0.9 -0.5,-1.6 -1.3,-1.6 m -36.1,-7.3 c -0.8,-0.3 -1.6,0 -2,0.8 l -2.9,6.7 h -3.5 c -0.8,0 -1.5,0.7 -1.5,1.5 0,0.8 0.7,1.5 1.5,1.5 h 3.9 l 2.7,2.8 c 0.6,0.6 1.5,0.6 2.1,0.1 0.6,-0.6 0.6,-1.5 0.1,-2.1 L 88.2,194.8 91,188 c 0.3,-0.7 0,-1.6 -0.8,-1.9 m 31.5,-75.2 c 0.8,0.3 1.6,0 2,-0.8 l 2.9,-6.7 h 3.5 c 0.8,0 1.5,-0.7 1.5,-1.5 0,-0.8 -0.7,-1.5 -1.5,-1.5 h -3.9 l -2.7,-2.8 C 122.9,97 122,97 121.4,97.5 c -0.6,0.6 -0.6,1.5 -0.1,2.1 l 2.4,2.6 -2.9,6.7 c -0.2,0.8 0.1,1.7 0.9,2 m 20.2,24 c 0.3,0.8 1.1,1.1 1.9,0.9 l 6.7,-2.5 2.4,2.5 c 0.6,0.6 1.5,0.6 2.1,0.1 0.6,-0.6 0.6,-1.5 0.1,-2.1 l -2.6,-2.7 0.2,-3.8 c 0,-0.8 -0.6,-1.5 -1.4,-1.5 -0.8,0 -1.5,0.6 -1.5,1.4 l -0.2,3.4 -6.7,2.5 c -0.9,0.2 -1.3,1 -1,1.8 m -85.8,-1.1 2.6,-2.4 6.7,2.9 c 0.8,0.3 1.6,0 2,-0.8 0.3,-0.8 0,-1.6 -0.8,-2 l -6.7,-2.9 v -3.5 c 0,-0.8 -0.7,-1.5 -1.5,-1.5 -0.8,0 -1.5,0.7 -1.5,1.5 v 3.9 l -2.8,2.7 c -0.6,0.6 -0.6,1.5 -0.1,2.1 0.6,0.5 1.5,0.5 2.1,0 m 12,29.7 c -0.3,-0.8 -1.1,-1.1 -1.9,-0.9 l -6.7,2.5 -2.4,-2.5 C 56.5,162 55.6,162 55,162.5 c -0.6,0.6 -0.6,1.5 -0.1,2.1 l 2.6,2.7 -0.2,3.8 c 0,0.8 0.6,1.5 1.4,1.5 0.8,0 1.5,-0.6 1.5,-1.4 l 0.2,-3.4 6.7,-2.5 c 0.9,-0.2 1.3,-1 1,-1.8 m 12.6,-60.1 3.4,0.2 2.5,6.7 c 0.3,0.8 1.1,1.1 1.9,0.9 0.8,-0.3 1.1,-1.1 0.9,-1.9 l -2.5,-6.7 2.5,-2.4 C 90,99.6 90,98.7 89.5,98.1 88.9,97.5 88,97.5 87.4,98 l -2.7,2.6 -3.8,-0.2 c -0.8,0 -1.5,0.6 -1.5,1.4 -0.1,0.9 0.5,1.6 1.3,1.6 m 75.3,61 c -0.6,-0.6 -1.5,-0.6 -2.1,-0.1 l -2.6,2.4 -6.7,-2.9 c -0.8,-0.3 -1.6,0 -2,0.8 -0.4,0.8 0,1.6 0.8,2 l 6.7,2.9 v 3.5 c 0,0.8 0.7,1.5 1.5,1.5 0.8,0 1.5,-0.7 1.5,-1.5 v -3.9 l 2.8,-2.7 c 0.6,-0.5 0.7,-1.4 0.1,-2 m -15.6,14.4 -3.3,1.3 -5.1,-5.1 c 6.4,-6.5 10.4,-15.3 10.8,-25 h 6 l 1.4,3.3 c 0.3,0.8 1.2,1.1 2,0.8 0.8,-0.3 1.1,-1.2 0.8,-2 l -1.5,-3.6 1.5,-3.6 c 0.3,-0.8 0,-1.6 -0.8,-2 -0.8,-0.3 -1.6,0 -2,0.8 l -1.4,3.3 h -6 c -0.4,-9.3 -4.1,-17.7 -9.9,-24.1 l 4.6,-4.6 3.3,1.3 c 0.8,0.3 1.6,-0.1 1.9,-0.8 0.3,-0.8 -0.1,-1.6 -0.8,-1.9 l -3.6,-1.4 -1.4,-3.6 c -0.3,-0.8 -1.2,-1.1 -1.9,-0.8 -0.8,0.3 -1.1,1.2 -0.8,2 l 1.3,3.3 -4.6,4.6 c -6.4,-6 -15,-9.8 -24.4,-10.2 v -6.5 l 3.3,-1.4 c 0.8,-0.3 1.1,-1.2 0.8,-2 -0.3,-0.8 -1.2,-1.1 -2,-0.8 l -3.6,1.5 -3.6,-1.5 c -0.8,-0.3 -1.6,0 -2,0.8 -0.3,0.8 0,1.6 0.8,2 l 3.3,1.4 v 6.5 C 94,111 85.4,114.9 79,121 l -4.4,-4.4 1.3,-3.3 c 0.3,-0.8 -0.1,-1.6 -0.8,-1.9 -0.8,-0.3 -1.6,0.1 -1.9,0.8 l -1.4,3.6 -3.6,1.4 c -0.8,0.3 -1.1,1.2 -0.8,1.9 0.3,0.8 1.2,1.1 1.9,0.8 l 3.3,-1.3 4.4,4.4 c -5.8,6.4 -9.4,14.7 -9.8,23.9 h -6 l -1.4,-3.3 c -0.3,-0.8 -1.2,-1.1 -2,-0.8 -0.8,0.3 -1.1,1.2 -0.8,2 l 1.5,3.6 -1.5,3.6 c -0.3,0.8 0,1.6 0.8,2 0.8,0.3 1.6,0 2,-0.8 l 1.4,-3.3 h 6 c 0.4,9.5 4.2,18 10.3,24.5 l -4.6,4.6 -3.3,-1.3 c -0.8,-0.3 -1.6,0.1 -1.9,0.8 -0.3,0.8 0.1,1.6 0.8,1.9 l 3.6,1.4 1.4,3.6 c 0.3,0.8 1.2,1.1 2,0.8 0.8,-0.3 1.1,-1.2 0.8,-1.9 L 75,181 l 4.6,-4.6 c 6.4,5.8 14.7,9.4 23.8,9.8 v 6.5 l -3.3,1.4 c -0.8,0.3 -1.1,1.2 -0.8,2 0.3,0.8 1.2,1.1 2,0.8 l 3.6,-1.5 3.6,1.5 c 0.8,0.3 1.6,0 2,-0.8 0.3,-0.8 0,-1.6 -0.8,-2 l -3.3,-1.4 v -6.5 c 8.9,-0.3 17.1,-3.8 23.4,-9.3 l 5.1,5.1 -1.3,3.3 c -0.3,0.8 0.1,1.6 0.8,1.9 0.8,0.3 1.6,-0.1 1.9,-0.8 l 1.4,-3.6 3.6,-1.4 c 0.8,-0.3 1.1,-1.2 0.8,-1.9 -0.1,-0.7 -0.9,-1 -1.7,-0.7 m -35.4,4.6 c -19.2,0 -34.9,-15.7 -34.9,-34.9 0,-19.2 15.7,-34.9 34.9,-34.9 19.2,0 34.9,15.7 34.9,34.9 0,19.2 -15.7,34.9 -34.9,34.9 m 10.4,-49.5 h 2.4 V 132 h -2.4 v -3.5 h 3.1 v -1.9 h -5.8 v 13.2 h 5.8 V 138 h -3.1 z m -0.6,22.2 h 2.4 v -2.4 h -2.4 z m -11.2,-13.3 h -2.4 l -1.5,9.2 -1.6,-9.2 h -2.3 l 2.5,13.2 h 2.8 z m 10.6,25.7 c 0,0.3 0,0.6 -0.1,1 0,0.3 -0.2,0.6 -0.3,0.8 -0.1,0.2 -0.4,0.3 -0.8,0.3 -0.3,0 -0.6,-0.1 -0.8,-0.3 -0.2,-0.2 -0.3,-0.5 -0.3,-0.8 0,-0.3 -0.1,-0.6 -0.1,-1 v -9.4 h -2.7 v 9.1 c 0,0.9 0.1,1.7 0.3,2.4 0.2,0.6 0.6,1.1 1.2,1.5 0.6,0.3 1.3,0.5 2.3,0.5 1,0 1.8,-0.2 2.3,-0.5 0.6,-0.3 0.9,-0.8 1.2,-1.5 0.2,-0.6 0.3,-1.4 0.3,-2.4 v -9.1 H 114 v 9.4 z m 9.8,-3.2 -1.3,-1.2 c -0.4,-0.3 -0.7,-0.6 -0.9,-0.9 -0.2,-0.3 -0.3,-0.7 -0.3,-1.2 0,-0.3 0.1,-0.5 0.2,-0.8 0.2,-0.2 0.4,-0.4 0.7,-0.4 0.3,0 0.5,0.1 0.7,0.3 0.1,0.2 0.2,0.4 0.3,0.7 0,0.3 0.1,0.7 0.1,1.1 l 2.3,-0.3 c 0,-0.4 -0.1,-0.9 -0.2,-1.3 -0.1,-0.4 -0.3,-0.8 -0.5,-1.2 -0.2,-0.4 -0.6,-0.7 -1,-0.9 -0.4,-0.2 -1,-0.3 -1.6,-0.3 -1.1,0 -2,0.3 -2.6,0.9 -0.6,0.6 -1,1.4 -1,2.5 0,0.8 0.2,1.4 0.5,1.9 0.3,0.5 0.7,1 1.2,1.4 l 1.4,1.2 c 0.4,0.4 0.8,0.8 1.1,1.1 0.3,0.4 0.4,0.8 0.4,1.4 0,0.3 -0.1,0.5 -0.2,0.8 -0.1,0.2 -0.4,0.3 -0.7,0.3 -0.3,0 -0.5,-0.1 -0.7,-0.3 -0.2,-0.2 -0.3,-0.5 -0.4,-0.8 -0.1,-0.4 -0.2,-0.8 -0.2,-1.4 l -2.3,0.4 c 0,0.9 0.2,1.7 0.5,2.3 0.3,0.6 0.7,1.1 1.2,1.4 0.5,0.3 1.2,0.4 2,0.4 0.7,0 1.3,-0.1 1.8,-0.4 0.5,-0.3 0.9,-0.7 1.2,-1.2 0.3,-0.5 0.4,-1.1 0.4,-1.7 0,-0.9 -0.2,-1.7 -0.6,-2.3 -0.4,-0.5 -0.9,-1.1 -1.5,-1.5 m 3.9,-32.7 c 0.2,-0.3 0.4,-0.7 0.5,-1.1 0.1,-0.4 0.1,-0.9 0.1,-1.4 0,-0.9 -0.2,-1.6 -0.5,-2.1 -0.3,-0.5 -0.8,-0.9 -1.5,-1.1 -0.6,-0.2 -1.4,-0.3 -2.3,-0.3 h -3.4 v 13.2 h 2.7 v -6 h 0.9 l 1.5,6 h 2.8 l -1.8,-6.5 c 0.4,-0.1 0.8,-0.3 1,-0.7 m -2,-1.2 c -0.1,0.3 -0.3,0.5 -0.5,0.6 -0.3,0.1 -0.6,0.2 -1,0.2 h -0.8 v -3.8 h 0.9 c 0.6,0 1,0.2 1.3,0.5 0.2,0.3 0.3,0.8 0.3,1.4 -0.1,0.4 -0.1,0.8 -0.2,1.1 M 96,136.9 h 2.1 l 0.5,2.9 h 2.5 l -2.6,-13.2 h -3 L 93,139.9 h 2.5 z m 1,-7 0.8,5.3 h -1.6 z m 12.1,12.8 c -1.1,0 -2,0.3 -2.6,0.9 -0.6,0.6 -1,1.4 -1,2.5 0,0.8 0.2,1.4 0.5,1.9 0.3,0.5 0.7,1 1.2,1.4 l 1.4,1.2 c 0.4,0.4 0.8,0.8 1.1,1.1 0.3,0.4 0.4,0.8 0.4,1.4 0,0.3 -0.1,0.5 -0.2,0.8 -0.1,0.3 -0.4,0.3 -0.7,0.3 -0.3,0 -0.5,-0.1 -0.7,-0.3 -0.2,-0.2 -0.3,-0.5 -0.4,-0.8 -0.1,-0.4 -0.1,-0.8 -0.2,-1.4 l -2.3,0.4 c 0,0.9 0.2,1.7 0.5,2.3 0.3,0.6 0.7,1.1 1.2,1.4 0.5,0.3 1.2,0.4 2,0.4 0.7,0 1.3,-0.1 1.8,-0.4 0.5,-0.3 0.9,-0.7 1.2,-1.2 0.3,-0.5 0.4,-1.1 0.4,-1.7 0,-0.9 -0.2,-1.7 -0.6,-2.3 -0.4,-0.6 -0.9,-1.2 -1.4,-1.6 l -1.3,-1.2 c -0.4,-0.3 -0.7,-0.6 -0.9,-0.9 -0.2,-0.3 -0.3,-0.7 -0.3,-1.2 0,-0.3 0.1,-0.5 0.2,-0.8 0.2,-0.2 0.4,-0.4 0.7,-0.4 0.3,0 0.5,0.1 0.7,0.3 0.1,0.2 0.2,0.4 0.3,0.7 0,0.3 0.1,0.7 0.1,1.1 l 2.3,-0.3 c 0,-0.4 -0.1,-0.9 -0.2,-1.3 -0.1,-0.4 -0.3,-0.8 -0.5,-1.2 -0.2,-0.4 -0.6,-0.7 -1,-0.9 -0.5,-0.1 -1,-0.2 -1.7,-0.2 M 94,172.3 h 2.7 V 159.1 H 94 Z m 12.4,-7.2 c 0.2,-0.3 0.4,-0.7 0.5,-1.1 0.1,-0.4 0.1,-0.9 0.1,-1.4 0,-0.9 -0.2,-1.6 -0.5,-2.1 -0.3,-0.5 -0.8,-0.9 -1.5,-1.1 -0.6,-0.2 -1.4,-0.3 -2.3,-0.3 h -3.4 v 13.2 h 2.7 v -6 h 0.9 l 1.5,6 h 2.8 l -1.8,-6.5 c 0.5,-0.1 0.8,-0.4 1,-0.7 m -2,-1.3 c -0.1,0.3 -0.3,0.5 -0.5,0.6 -0.3,0.1 -0.6,0.2 -1,0.2 H 102 v -3.8 h 0.9 c 0.6,0 1,0.2 1.3,0.5 0.2,0.3 0.3,0.8 0.3,1.4 0,0.5 0,0.9 -0.1,1.1 m 1.3,-29.1 0.4,-0.8 2,5.9 h 2.7 l -2.7,-7.3 2.5,-6 H 108 l -2.4,5.6 v -5.6 H 103 v 13.2 h 2.7 z M 87.8,168.2 86.2,159 h -2.3 l 2.5,13.2 h 2.8 L 91.7,159 h -2.4 z m -0.6,-28.3 1.7,-9 0.2,9 h 2 l -0.2,-13.2 h -2.8 l -1.7,8.4 -1.6,-8.4 h -2.9 l -0.2,13.2 h 2 l 0.2,-9 1.8,9 z"
   class="st0" />
</g>
</svg>
