<svg xmlns="http://www.w3.org/2000/svg" xmlns:xlink="http://www.w3.org/1999/xlink" viewBox="0 0 2775.98 2776"><defs><style>.cls-1{fill:none;}.cls-2{clip-path:url(#clip-path);}.cls-3{fill:#fff;}</style><clipPath id="clip-path" transform="translate(-12.01 -12)"><rect class="cls-1" width="2800" height="2800"/></clipPath></defs><title>Element 1</title><g id="Ebene_2" data-name="Ebene 2"><g id="Ebene_1-2" data-name="Ebene 1"><g class="cls-2"><path class="cls-3" d="M1398.34,2454.43c-432,0-816.9-258.37-980.54-658.23C196.65,1255.69,456.42,636.06,996.89,414.91c128.36-52.52,263.19-79.16,400.74-79.16,432,0,816.92,258.38,980.54,658.23,221.17,540.48-38.61,1160.12-579.09,1381.29-128.36,52.54-263.19,79.16-400.74,79.16M1397.63,437c-124.34,0-246.26,24.1-362.4,71.61C546.42,708.61,311.47,1269,511.48,1757.84c148,361.67,496.12,595.37,886.86,595.37,124.34,0,246.27-24.09,362.41-71.62,488.81-200,723.76-760.46,523.74-1249.27C2136.5,670.67,1788.39,437,1397.63,437" transform="translate(-12.01 -12)"/><path class="cls-3" d="M964.18,383.17a50.64,50.64,0,0,1-46.62-30.86s-27.8-65.49-61.32-147.43c-14.42-35.24-59.09-19.79-64.14-17.92a50.61,50.61,0,1,1-35.24-94.89c56.75-21.09,155-18.62,193.07,74.48,33.25,81.27,60.81,146.22,60.81,146.22a50.65,50.65,0,0,1-46.56,70.4" transform="translate(-12.01 -12)"/><path class="cls-3" d="M936.49,317.94a50.64,50.64,0,0,1-46.87-31.46l-33.38-81.6C818.15,111.77,886.5,41.17,941.73,16.44a50.61,50.61,0,0,1,41.37,92.38c-10.87,5.12-46.58,24.94-33.17,57.73l33.39,81.61a50.64,50.64,0,0,1-46.83,69.78" transform="translate(-12.01 -12)"/><path class="cls-3" d="M1981.31,2718.74c-50.12,0-105-21.09-131.26-85.32L1784.39,2473a50.61,50.61,0,1,1,93.68-38.32l65.66,160.44c14.42,35.21,59.07,19.81,64.13,17.93a50.61,50.61,0,1,1,35.24,94.88,180.71,180.71,0,0,1-61.79,10.83" transform="translate(-12.01 -12)"/><path class="cls-3" d="M1837.59,2788a50.63,50.63,0,0,1-20.72-96.83c10.86-5.12,46.59-25,33.18-57.74l-50.85-124.26a50.61,50.61,0,1,1,93.68-38.33l50.85,124.26c38.11,93.11-30.25,163.7-85.49,188.45a50.26,50.26,0,0,1-20.65,4.45" transform="translate(-12.01 -12)"/><path class="cls-3" d="M139.3,2075.89a50.25,50.25,0,0,1-47.22-32.79C71,1986.37,73.45,1888.16,166.55,1850l155.77-63.73A50.61,50.61,0,1,1,360.67,1880l-155.78,63.74c-32.78,13.42-21.89,52.78-17.77,64.54a50.68,50.68,0,0,1-47.82,67.62" transform="translate(-12.01 -12)"/><path class="cls-3" d="M151.45,1954.79c-66.31,0-115.26-52.44-135-96.53a50.61,50.61,0,0,1,92.39-41.37c5.11,10.87,25,46.59,57.72,33.15l124.26-50.85a50.62,50.62,0,0,1,38.36,93.69l-124.28,50.85c-18.8,7.7-36.68,11.06-53.44,11.06" transform="translate(-12.01 -12)"/><path class="cls-3" d="M2459.64,1017a50.62,50.62,0,0,1-19.19-97.47l154.66-63.28c32.78-13.41,21.89-52.78,17.76-64.53a50.62,50.62,0,0,1,95.05-34.83c21.07,56.72,18.62,154.94-74.48,193L2478.8,1013.2a50.4,50.4,0,0,1-19.16,3.79" transform="translate(-12.01 -12)"/><path class="cls-3" d="M2737.39,1013.05a50.61,50.61,0,0,1-46.21-29.95c-5.12-10.86-25-46.57-57.74-33.17l-110.36,45.16a50.62,50.62,0,0,1-38.38-93.68l110.41-45.17c93.09-38.07,163.71,30.25,188.45,85.49a50.66,50.66,0,0,1-46.17,71.32" transform="translate(-12.01 -12)"/><path class="cls-3" d="M66.33,1001.36A50.55,50.55,0,0,1,20.4,929.92c25.21-55,96.39-122.78,189.17-83.87l137,57.43a50.61,50.61,0,0,1-39.13,93.36l-137-57.44c-32.67-13.7-52.79,21.86-58.19,33.08a51,51,0,0,1-45.91,28.88" transform="translate(-12.01 -12)"/><path class="cls-3" d="M341.47,1006.87a50.43,50.43,0,0,1-19.54-4L170.43,939.4C77.64,900.51,76.06,802.26,97.65,745.7a50.61,50.61,0,0,1,94.57,36.09c-4.07,11.3-15.31,50.57,17.35,64.26l151.49,63.51a50.63,50.63,0,0,1-19.59,97.31" transform="translate(-12.01 -12)"/><path class="cls-3" d="M2644.83,1965.44c-17.09,0-35.31-3.5-54.44-11.51l-160.24-67.18a50.61,50.61,0,0,1,39.13-93.35l160.25,67.18c32.67,13.68,52.82-21.85,58.21-33.06a50.62,50.62,0,0,1,91.85,42.55c-20,43.7-69,95.37-134.76,95.37" transform="translate(-12.01 -12)"/><path class="cls-3" d="M2655.05,2086.88a50.67,50.67,0,0,1-47.28-68.68c4.06-11.3,15.3-50.56-17.38-64.26-79.47-33.33-125.61-51.08-126.06-51.28a50.61,50.61,0,1,1,36.3-94.48c1.91.74,47.85,18.4,128.9,52.4,92.79,38.9,94.38,137.15,72.81,193.71a50.62,50.62,0,0,1-47.29,32.59" transform="translate(-12.01 -12)"/><path class="cls-3" d="M950.86,2784.18a50.59,50.59,0,0,1-20.94-4.58c-55-25.23-122.76-96.42-83.85-189.21,33.87-80.8,67.2-156.26,67.53-157a50.61,50.61,0,0,1,92.59,40.9c-.33.76-33.28,75.39-66.77,155.26-13.7,32.69,21.84,52.83,33.06,58.21a50.68,50.68,0,0,1-21.62,96.44" transform="translate(-12.01 -12)"/><path class="cls-3" d="M809,2713.71a180.61,180.61,0,0,1-63.26-11.37,50.61,50.61,0,1,1,36.08-94.57c11.29,4.07,50.56,15.31,64.27-17.38l51.82-123.6,93.36,39.13-51.83,123.61c-26.55,63.34-80.74,84.18-130.44,84.18" transform="translate(-12.01 -12)"/><path class="cls-3" d="M1844,391.53a50.66,50.66,0,0,1-46.65-70.2l63.26-150.9c13.69-32.66-21.86-52.8-33.08-58.19a50.62,50.62,0,0,1,42.56-91.85c55,25.21,122.77,96.4,83.87,189.19l-63.26,150.88a50.62,50.62,0,0,1-46.7,31.07" transform="translate(-12.01 -12)"/><path class="cls-3" d="M1862.75,346.72a50.65,50.65,0,0,1-46.65-70.2l44.48-106.09c38.9-92.77,137.16-94.34,193.71-72.8a50.62,50.62,0,0,1-36.08,94.59c-11.31-4.08-50.59-15.32-64.28,17.36l-44.47,106.08a50.65,50.65,0,0,1-46.71,31.06" transform="translate(-12.01 -12)"/><path class="cls-3" d="M680.47,714.64a50.44,50.44,0,0,1-36.12-15.16L553.86,607.3c-26.66-27.18-62.17,4-66.13,7.65a50.62,50.62,0,1,1-68.52-74.52c44.56-40.95,136.43-75.87,206.9-4l90.47,92.17a50.62,50.62,0,0,1-36.11,86.07" transform="translate(-12.01 -12)"/><path class="cls-3" d="M740.53,784.26a50.49,50.49,0,0,1-37.68-16.8c-.88-1-88.75-98.79-149-160.16-70.47-71.83-33.87-163,7.91-206.79A50.61,50.61,0,1,1,635,470.39c-8.12,8.85-33.7,40.71-8.88,66,61.83,63,148.41,159.36,152.06,163.43a50.61,50.61,0,0,1-37.64,84.43" transform="translate(-12.01 -12)"/><path class="cls-3" d="M2264.78,2295.25c-32,0-65.35-11.34-94.92-41.47l-90.46-92.17a50.62,50.62,0,1,1,72.23-70.93l90.48,92.2c26.67,27.15,62.17-4,66.13-7.66a50.61,50.61,0,1,1,68.52,74.5c-25.85,23.78-67.67,45.53-112,45.53" transform="translate(-12.01 -12)"/><path class="cls-3" d="M2197.58,2405.33a50.61,50.61,0,0,1-36.6-85.57c8.13-8.83,33.7-40.69,8.88-66-60.52-61.67-151.07-148.7-152-149.59a50.6,50.6,0,1,1,70.12-73c.92.87,92.56,88.93,154.11,151.67,70.48,71.8,33.89,163-7.91,206.77a50.46,50.46,0,0,1-36.62,15.68" transform="translate(-12.01 -12)"/><path class="cls-3" d="M580.61,2390.21a50.49,50.49,0,0,1-37.26-16.34c-41-44.55-75.87-136.42-4.05-206.91l92.2-90.48a50.61,50.61,0,1,1,70.89,72.26l-92.18,90.47c-27.16,26.66,4,62.16,7.64,66.12a50.61,50.61,0,0,1-37.24,84.88" transform="translate(-12.01 -12)"/><path class="cls-3" d="M517,2278.93c-45.26,0-87.73-22.9-113.63-47.63a50.62,50.62,0,0,1,69.91-73.22c8.82,8.12,40.71,33.7,66,8.88,62-60.83,149.5-148.64,150.38-149.53a50.61,50.61,0,1,1,71.7,71.46c-.87.87-88.78,89.08-151.17,150.32-29.33,28.78-61.91,39.72-93.17,39.72" transform="translate(-12.01 -12)"/><path class="cls-3" d="M2129.05,728.16a50.61,50.61,0,0,1-35.45-86.73L2185.78,551c27.15-26.66-4-62.16-7.66-66.12a50.62,50.62,0,0,1,74.51-68.53c41,44.54,75.85,136.41,4,206.89l-92.17,90.46a50.49,50.49,0,0,1-35.46,14.5" transform="translate(-12.01 -12)"/><path class="cls-3" d="M2074.54,799.46a50.62,50.62,0,0,1-38.78-83.11c3.48-4.16,86.06-102.63,150-165.39,71.77-70.48,163-33.9,206.78,7.92a50.61,50.61,0,1,1-69.89,73.22c-8.85-8.13-40.7-33.72-66-8.9-60.39,59.27-142.48,157.15-143.31,158.13a50.5,50.5,0,0,1-38.83,18.13" transform="translate(-12.01 -12)"/><path class="cls-3" d="M152.15,1535.32c-.85,0-1.72,0-2.59-.07a50.39,50.39,0,0,1-48-52.41c2.53-60.46,42.95-149.57,143.44-149.14l129.17,1.2a50.62,50.62,0,0,1-.48,101.24h-.5l-129.12-1.22c-36-.07-40.64,40.17-41.39,52.59a50.85,50.85,0,0,1-50.53,47.81" transform="translate(-12.01 -12)"/><path class="cls-3" d="M373.69,1436.14h-.5l-129.12-1.22c-100.64-.93-139.25-91.31-140.64-151.83a50.61,50.61,0,0,1,101.19-2.34c.51,12,4.94,52.62,40.38,53l129.17,1.2a50.62,50.62,0,0,1-.48,101.24" transform="translate(-12.01 -12)"/><path class="cls-3" d="M2552.53,1456.47H2551l-129.18-1.22a50.62,50.62,0,0,1-50.14-51.09c.27-28,23.49-50.1,51.1-50.13l129.16,1.21c38.37.67,41.14-46.79,41.36-52.17a50.61,50.61,0,1,1,101.14,4.25c-2.53,60.14-42.43,149.15-141.89,149.15" transform="translate(-12.01 -12)"/><path class="cls-3" d="M2641.93,1558.85a50.6,50.6,0,0,1-50.57-49.43c-.51-12-5-52.63-40.38-53l-129.18-1.22a50.62,50.62,0,0,1-50.14-51.09c.27-28,23.49-50.1,51.1-50.13l129.15,1.21c100.61.93,139.23,91.31,140.64,151.81a50.6,50.6,0,0,1-49.42,51.78c-.39,0-.8,0-1.2,0" transform="translate(-12.01 -12)"/><path class="cls-3" d="M1487.91,2691.55c-.72,0-1.44,0-2.16,0-60.46-2.54-150.07-42.84-149.15-143.44l1.21-129.19a50.63,50.63,0,0,1,50.61-50.13h.49a50.64,50.64,0,0,1,50.13,51.1L1437.83,2549c-.36,38.06,46.79,41.15,52.17,41.36a50.62,50.62,0,0,1-2.09,101.19" transform="translate(-12.01 -12)"/><path class="cls-3" d="M1284.81,2689.67a50.62,50.62,0,0,1-1.15-101.22c12-.5,52.62-4.95,52.94-40.37l1.21-129.19a50.63,50.63,0,0,1,50.61-50.13h.49a50.64,50.64,0,0,1,50.13,51.1L1437.83,2549c-.93,100.6-91.29,139.24-151.82,140.64q-.59,0-1.2,0" transform="translate(-12.01 -12)"/><path class="cls-3" d="M1407.56,421.4h-.49a50.63,50.63,0,0,1-50.14-51.1l1.21-129.14c.35-38.06-46.79-41.15-52.17-41.37a50.61,50.61,0,1,1,4.26-101.14c60.45,2.55,150.06,42.85,149.13,143.45l-1.2,129.16a50.62,50.62,0,0,1-50.6,50.14" transform="translate(-12.01 -12)"/><path class="cls-3" d="M1407.56,421.4h-.49a50.63,50.63,0,0,1-50.14-51.1l1.21-129.14c.93-100.6,91.3-139.23,151.82-140.64,27.43-.8,51.13,21.46,51.78,49.41a50.6,50.6,0,0,1-49.41,51.78c-12,.51-52.64,5-53,40.39l-1.2,129.16a50.62,50.62,0,0,1-50.6,50.14" transform="translate(-12.01 -12)"/><path class="cls-3" d="M1106.44,743.7v340.49H1029l-.1-229.87-30.81,229.87H943.24l-32.5-224.61-.1,224.61H833.25V743.7H947.81q5.1,30.7,10.51,72.39l12.57,86.6,20.35-159Z" transform="translate(-12.01 -12)"/><path class="cls-3" d="M1295,743.7l50.63,340.49h-90.49l-4.75-61.2h-31.67l-5.32,61.2h-91.54l45.17-340.49ZM1248.1,962.63q-6.72-57.84-13.48-143-13.53,97.8-17,143Z" transform="translate(-12.01 -12)"/><polygon class="cls-3" points="1559.73 731.7 1508.94 885.44 1564.57 1072.19 1473.08 1072.19 1437.22 926.24 1437.22 1072.19 1348.69 1072.19 1348.69 731.7 1437.22 731.7 1437.22 863.98 1476.66 731.7 1559.73 731.7"/><polygon class="cls-3" points="1579.81 731.7 1727.45 731.7 1727.45 799.84 1668.35 799.84 1668.35 864.4 1723.66 864.4 1723.66 929.18 1668.35 929.18 1668.35 1004.05 1733.34 1004.05 1733.34 1072.19 1579.81 1072.19 1579.81 731.7"/><path class="cls-3" d="M1770.8,743.7h62.67q62.67,0,84.86,4.84t36.17,24.71q14,19.88,14,63.41,0,39.75-9.88,53.42t-38.91,16.4Q1946,913,1955,923.93T1966.28,944q2.21,9.15,2.2,50.37v89.8h-82.22V971q0-27.33-4.32-33.86t-22.61-6.52v153.53H1770.8ZM1859.33,802v75.71q14.94,0,20.93-4.1t6-26.61V828.25q0-16.2-5.79-21.25t-21.14-5" transform="translate(-12.01 -12)"/><path class="cls-3" d="M1364.69,1260.55,1319.63,1601H1185.14L1134,1260.55h93.37q16.28,140.68,23.24,238.07,6.87-98.41,14.57-174.75l6.15-63.32Z" transform="translate(-12.01 -12)"/><path class="cls-3" d="M1567.22,1363.6H1485v-25.23q0-17.67-3.16-22.51t-10.51-4.83a13.37,13.37,0,0,0-12.09,6.52q-4.11,6.53-4.11,19.78,0,17.06,4.61,25.68,4.41,8.63,25,20.82,59.13,35.09,74.48,57.59t15.35,72.55q0,36.39-8.52,53.63t-32.91,28.92q-24.4,11.67-56.78,11.67-35.55,0-60.68-13.46t-32.91-34.28q-7.79-20.82-7.78-59.1v-22.29h82.23v41.43q0,19.14,3.47,24.61t12.3,5.47q8.84,0,13.14-6.94t4.32-20.61q0-30.07-8.21-39.33-8.41-9.26-41.43-30.92-33-21.87-43.74-31.75t-17.77-27.34q-7.05-17.46-7-44.59,0-39.12,10-57.2t32.28-28.29q22.31-10.2,53.84-10.2,34.5,0,58.78,11.15t32.18,28.07q7.89,16.94,7.89,57.52Z" transform="translate(-12.01 -12)"/><rect class="cls-3" x="1580.23" y="1519.64" width="64.14" height="69.4"/><path class="cls-3" d="M1108.64,1777.4l-45.05,340.49H929.09L877.94,1777.4h93.37q16.28,140.68,23.24,238.07,6.87-98.42,14.57-174.75l6.15-63.32Z" transform="translate(-12.01 -12)"/><rect class="cls-3" x="1111.56" y="1765.4" width="88.54" height="340.49"/><path class="cls-3" d="M1247.66,1777.4h62.67q62.67,0,84.86,4.84t36.17,24.71q14,19.88,14,63.41,0,39.75-9.89,53.42t-38.91,16.4q26.29,6.52,35.34,17.46t11.25,20.08q2.2,9.15,2.21,50.37v89.8h-82.23V2004.75q0-27.35-4.32-33.86t-22.6-6.52v153.52h-88.54Zm88.54,58.26v75.71q14.92,0,20.92-4.1t6-26.61V1862q0-16.2-5.79-21.24t-21.13-5" transform="translate(-12.01 -12)"/><path class="cls-3" d="M1680.89,1777.4V2005q0,38.7-2.52,54.36t-14.94,32.18a77.35,77.35,0,0,1-32.7,25q-20.3,8.52-47.84,8.52-30.5,0-53.84-10.09t-34.91-26.29q-11.58-16.2-13.67-34.18t-2.11-75.6V1777.4h88.54v255.32q0,22.29,2.42,28.49t9.78,6.21q8.42,0,10.83-6.84t2.42-32.28V1777.4Z" transform="translate(-12.01 -12)"/><path class="cls-3" d="M1902.76,1880.45h-82.23v-25.23q0-17.67-3.15-22.51t-10.52-4.83a13.38,13.38,0,0,0-12.09,6.52q-4.1,6.52-4.1,19.79,0,17,4.61,25.67,4.4,8.63,25,20.82,59.12,35.08,74.47,57.59t15.35,72.55q0,36.39-8.51,53.63t-32.92,28.92Q1844.3,2125,1811.91,2125q-35.55,0-60.67-13.46t-32.92-34.28q-7.78-20.82-7.78-59.09v-22.3h82.23v41.43q0,19.14,3.47,24.61t12.31,5.47q8.82,0,13.14-6.94t4.31-20.61q0-30.07-8.2-39.33-8.41-9.26-41.43-30.92-33-21.87-43.75-31.75t-17.77-27.34q-7-17.46-7-44.59,0-39.12,10-57.2t32.28-28.29q22.29-10.2,53.84-10.2,34.49,0,58.78,11.15t32.18,28.08q7.88,16.92,7.88,57.51Z" transform="translate(-12.01 -12)"/></g></g></g></svg>