<?xml version="1.0" encoding="UTF-8" standalone="no"?>
<svg
   xmlns:dc="http://purl.org/dc/elements/1.1/"
   xmlns:cc="http://creativecommons.org/ns#"
   xmlns:rdf="http://www.w3.org/1999/02/22-rdf-syntax-ns#"
   xmlns:svg="http://www.w3.org/2000/svg"
   xmlns="http://www.w3.org/2000/svg"
   xmlns:xlink="http://www.w3.org/1999/xlink"
   xmlns:sodipodi="http://sodipodi.sourceforge.net/DTD/sodipodi-0.dtd"
   xmlns:inkscape="http://www.inkscape.org/namespaces/inkscape"
   inkscape:version="1.0beta2 (2b71d25, 2019-12-03)"
   height="18.9655"
   width="77.820107"
   sodipodi:docname="mvsv.svg"
   xml:space="preserve"
   viewBox="0 0 77.820105 18.965501"
   y="0px"
   x="0px"
   id="Ebene_1"
   version="1.1"><metadata
   id="metadata2033"><rdf:RDF><cc:Work
       rdf:about=""><dc:format>image/svg+xml</dc:format><dc:type
         rdf:resource="http://purl.org/dc/dcmitype/StillImage" /><dc:title></dc:title></cc:Work></rdf:RDF></metadata><defs
   id="defs2031" /><sodipodi:namedview
   inkscape:current-layer="Ebene_1"
   inkscape:window-maximized="0"
   inkscape:window-y="23"
   inkscape:window-x="0"
   inkscape:cy="9.2499992"
   inkscape:cx="38.577452"
   inkscape:zoom="5.0049553"
   fit-margin-bottom="0"
   fit-margin-right="0"
   fit-margin-left="0"
   fit-margin-top="0"
   showgrid="false"
   id="namedview2029"
   inkscape:window-height="480"
   inkscape:window-width="677"
   inkscape:pageshadow="2"
   inkscape:pageopacity="0"
   guidetolerance="10"
   gridtolerance="10"
   objecttolerance="10"
   borderopacity="1"
   inkscape:document-rotation="0"
   bordercolor="#666666"
   pagecolor="#ffffff" />
<style
   id="style2014"
   type="text/css">
	.st0{clip-path:url(#SVGID_2_);fill:#FFFFFF;}
	.st1{clip-path:url(#SVGID_2_);fill:none;stroke:#FFFFFF;stroke-width:0.25;stroke-miterlimit:10;}
</style>
<g
   transform="translate(-11.872549,-9.8)"
   id="g2026">
	<defs
   id="defs2017">
		<rect
   x="0"
   height="38.099998"
   width="100.9"
   y="0"
   id="SVGID_1_" />
	</defs>
	<clipPath
   id="SVGID_2_">
		<use
   height="100%"
   width="100%"
   y="0"
   x="0"
   id="use2019"
   style="overflow:visible"
   xlink:href="#SVGID_1_" />
	</clipPath>
	<path
   inkscape:connector-curvature="0"
   id="path2022"
   clip-path="url(#SVGID_2_)"
   d="m 47.1,18.9 c 0.2,-0.2 0.3,-0.5 0.4,-0.9 0.1,-0.3 0.1,-0.7 0.1,-1.1 0,-0.7 -0.1,-1.3 -0.4,-1.7 -0.3,-0.4 -0.7,-0.7 -1.2,-0.8 -0.5,-0.2 -1.1,-0.2 -1.8,-0.2 h -2.8 v 10.3 h 2.3 v -4.6 h 0.6 l 1.1,4.6 h 2.3 l -1.4,-5 c 0.4,-0.2 0.6,-0.4 0.8,-0.6 m -1.7,-1 c -0.1,0.2 -0.2,0.4 -0.4,0.5 -0.2,0.1 -0.4,0.2 -0.7,0.2 h -0.6 v -2.8 h 0.7 c 0.4,0 0.7,0.1 0.9,0.4 0.2,0.2 0.2,0.6 0.2,1 0,0.2 -0.1,0.5 -0.1,0.7 m -7.6,2 h 1.8 v -1.6 h -1.8 v -2.6 h 2.3 v -1.5 h -4.6 v 10.3 h 4.6 V 23 h -2.4 v -3.1 z m -20.9,-5.7 -1.2,6 -1.1,-6 H 12.2 L 12,24.5 h 1.6 l 0.2,-6.9 1.3,6.9 h 1.4 l 1.2,-6.8 0.2,6.8 h 1.6 L 19.3,14.2 Z m 17.5,0 h -2.2 l -1.7,4.2 v -4.2 h -2.3 v 10.3 h 2.3 v -4.1 l 0.2,-0.4 1.5,4.5 h 2.3 l -2,-5.6 z m 19.6,7 -1.1,-7 H 51 l 1.9,10.3 h 2.4 L 57.2,14.2 H 55 Z m -31.5,-7 -1.9,10.3 h 2.1 l 0.4,-2.2 h 1.5 l 0.3,2.2 H 27 L 25.1,14.2 Z m 0.8,6.7 0.5,-4 0.5,4 z M 62,19 61.1,18.3 c -0.3,-0.3 -0.5,-0.5 -0.7,-0.8 -0.2,-0.2 -0.3,-0.6 -0.3,-0.9 0,-0.2 0,-0.4 0.1,-0.5 0.1,-0.2 0.3,-0.3 0.5,-0.3 0.2,0 0.3,0.1 0.4,0.2 0.1,0.1 0.2,0.3 0.2,0.5 0,0.2 0,0.5 0.1,0.8 l 2,-0.2 c 0,-0.3 0,-0.6 -0.1,-1 -0.1,-0.3 -0.2,-0.7 -0.4,-1 -0.2,-0.3 -0.4,-0.5 -0.8,-0.7 -0.3,-0.2 -0.8,-0.3 -1.3,-0.3 -0.9,0 -1.6,0.2 -2.1,0.7 -0.5,0.5 -0.8,1.1 -0.8,2 0,0.6 0.1,1.1 0.4,1.6 0.3,0.4 0.6,0.8 1,1.1 l 0.9,0.8 c 0.3,0.3 0.6,0.6 0.8,0.9 0.2,0.3 0.3,0.7 0.3,1.1 0,0.2 0,0.3 -0.1,0.5 C 61.1,23 61,23 60.7,23 60.5,23 60.4,22.9 60.2,22.8 60.1,22.7 60,22.5 59.9,22.2 59.8,21.9 59.8,21.6 59.8,21.1 l -1.9,0.3 c 0,0.8 0.1,1.4 0.4,1.9 0.2,0.5 0.5,0.8 1,1.1 0.4,0.2 1,0.3 1.6,0.3 0.5,0 1,-0.1 1.4,-0.3 0.4,-0.2 0.7,-0.5 0.9,-0.9 0.2,-0.4 0.3,-0.8 0.3,-1.3 0,-0.7 -0.2,-1.3 -0.5,-1.8 -0.2,-0.6 -0.6,-1.1 -1,-1.4 m 2.7,5.5 h 2 v -2 h -2 z M 89.5,22.1 C 89.4,22 89.2,22 89.1,22.1 L 88.6,22.5 87.4,22 c -0.1,-0.1 -0.3,0 -0.4,0.1 -0.1,0.1 0,0.3 0.1,0.4 l 1.2,0.5 v 0.6 c 0,0.2 0.1,0.3 0.3,0.3 0.1,0 0.3,-0.1 0.3,-0.3 v -0.7 l 0.5,-0.5 c 0.2,0 0.2,-0.1 0.1,-0.3 m -13.7,-11 h 0.6 l 0.4,1.2 c 0.1,0.1 0.2,0.2 0.3,0.2 0.1,-0.1 0.2,-0.2 0.2,-0.3 L 77,10.9 77.5,10.5 c 0.1,-0.1 0.1,-0.3 0,-0.4 -0.1,-0.1 -0.3,-0.1 -0.4,0 l -0.5,0.5 h -0.7 c -0.1,0 -0.3,0.1 -0.3,0.3 0,0 0.1,0.2 0.2,0.2 M 87,16.8 c 0.1,0.1 0.2,0.2 0.3,0.2 l 1.2,-0.4 0.4,0.5 c 0.1,0.1 0.3,0.1 0.4,0 0.1,-0.1 0.1,-0.3 0,-0.4 l -0.5,-0.5 v -0.7 c 0,-0.1 -0.1,-0.3 -0.3,-0.3 -0.1,0 -0.3,0.1 -0.3,0.3 v 0.6 L 87,16.5 c 0,0 -0.1,0.1 0,0.3 m -3.4,-4.5 0.5,-1.2 h 0.6 c 0.2,0 0.3,-0.1 0.3,-0.3 0,-0.1 -0.1,-0.3 -0.3,-0.3 H 84 L 83.6,10 c -0.1,-0.1 -0.3,-0.1 -0.4,0 -0.1,0.1 -0.1,0.3 0,0.4 l 0.4,0.5 -0.5,1.2 c -0.1,0.1 0,0.3 0.1,0.4 0.2,0 0.4,-0.1 0.4,-0.2 m 0.5,15.1 H 83.5 L 83,26.2 C 83,26 82.8,26 82.7,26 c -0.1,0.1 -0.2,0.2 -0.2,0.3 l 0.4,1.2 -0.4,0.5 c -0.1,0.1 -0.1,0.3 0,0.4 0.1,0.1 0.3,0.1 0.4,0 l 0.5,-0.5 h 0.7 c 0.1,0 0.3,-0.1 0.3,-0.3 0,-0.1 -0.1,-0.2 -0.3,-0.2 m 2.6,-2.6 -0.6,0.2 -0.9,-0.9 c 1.2,-1.2 1.9,-2.8 2,-4.5 h 1.1 l 0.3,0.6 c 0.1,0.1 0.2,0.2 0.4,0.1 0,-0.1 0,-0.3 0,-0.4 L 88.7,19.2 89,18.5 c 0.1,-0.1 0,-0.3 -0.1,-0.4 -0.1,-0.1 -0.3,0 -0.4,0.1 L 88.2,19 H 87.1 C 87,17.3 86.4,15.8 85.3,14.6 l 0.8,-0.8 0.6,0.2 c 0.1,0.1 0.3,0 0.4,-0.2 0.1,-0.1 0,-0.3 -0.2,-0.4 L 86.2,13.1 86,12.6 c -0.1,-0.1 -0.2,-0.2 -0.4,-0.2 -0.1,0.1 -0.2,0.2 -0.2,0.4 l 0.2,0.6 -0.8,0.8 C 83.6,13.1 82.1,12.4 80.4,12.4 V 11.2 L 81,10.9 c 0.1,-0.1 0.2,-0.2 0.1,-0.4 C 81,10.4 80.9,10.3 80.7,10.4 L 80,10.7 79.3,10.4 c -0.1,-0.1 -0.3,0 -0.4,0.1 -0.1,0.1 0,0.3 0.1,0.4 l 0.6,0.3 v 1.2 c -1.7,0.1 -3.3,0.8 -4.4,1.9 l -0.8,-0.8 0.2,-0.6 c 0.1,-0.1 0,-0.3 -0.2,-0.4 -0.1,-0.1 -0.3,0 -0.4,0.2 l -0.3,0.7 -0.7,0.3 c -0.1,0.1 -0.2,0.2 -0.2,0.4 0.1,0.1 0.2,0.2 0.4,0.2 l 0.6,-0.2 0.8,0.8 c -1,1.2 -1.7,2.7 -1.8,4.3 H 71.7 L 72,18.4 c -0.1,-0.1 -0.2,-0.2 -0.4,-0.1 -0.1,0.1 -0.2,0.2 -0.1,0.4 l 0.3,0.7 -0.3,0.7 c -0.1,0.1 0,0.3 0.1,0.4 0.1,0.1 0.3,0 0.4,-0.1 l 0.3,-0.6 h 1.1 c 0.1,1.7 0.8,3.3 1.9,4.4 L 74.5,25 73.9,24.8 c -0.1,-0.1 -0.3,0 -0.4,0.2 -0.1,0.1 0,0.3 0.2,0.4 l 0.7,0.3 0.3,0.7 c 0.1,0.1 0.2,0.2 0.4,0.2 0.1,-0.1 0.2,-0.2 0.2,-0.4 l -0.2,-0.6 0.8,-0.8 c 1.2,1 2.7,1.7 4.3,1.8 v 1.2 l -0.6,0.3 c -0.1,0.1 -0.2,0.2 -0.1,0.4 0.1,0.1 0.2,0.2 0.4,0.1 l 0.7,-0.3 0.7,0.3 c 0.1,0.1 0.3,0 0.4,-0.1 0.1,-0.1 0,-0.3 -0.1,-0.4 L 81,27.8 v -1.2 c 1.6,-0.1 3.1,-0.7 4.3,-1.7 l 0.9,0.9 -0.7,0.2 c -0.1,0.1 0,0.3 0.2,0.4 0.1,0.1 0.3,0 0.4,-0.2 l 0.3,-0.7 0.7,-0.3 c 0.1,-0.1 0.2,-0.2 0.2,-0.4 -0.3,0 -0.5,-0.1 -0.6,0 m -6.5,0.8 c -3.5,0 -6.3,-2.8 -6.3,-6.3 0,-3.5 2.8,-6.3 6.3,-6.3 3.5,0 6.3,2.8 6.3,6.3 0,3.5 -2.8,6.3 -6.3,6.3 M 73.5,22 C 73.4,21.9 73.3,21.8 73.2,21.8 L 72,22.3 71.6,21.8 c -0.1,-0.1 -0.3,-0.1 -0.4,0 -0.1,0.1 -0.1,0.3 0,0.4 l 0.5,0.5 v 0.7 c 0,0.1 0.1,0.3 0.3,0.3 0.1,0 0.3,-0.1 0.3,-0.3 v -0.6 l 1.2,-0.4 c 0,-0.1 0.1,-0.3 0,-0.4 m -2.1,-5.4 0.5,-0.4 1.2,0.5 c 0.1,0.1 0.3,0 0.4,-0.1 0.1,-0.1 0,-0.3 -0.1,-0.4 l -1.2,-0.5 v -0.6 c 0,-0.1 -0.1,-0.3 -0.3,-0.3 -0.2,0 -0.3,0.1 -0.3,0.3 v 0.7 L 71,16.2 c -0.1,0.1 -0.1,0.3 0,0.4 0.1,0.1 0.3,0.1 0.4,0 m 5.8,9.6 -0.5,1.2 h -0.6 c -0.2,0 -0.3,0.1 -0.3,0.3 0,0.2 0.1,0.3 0.3,0.3 h 0.7 l 0.5,0.5 c 0.1,0.1 0.3,0.1 0.4,0 0.1,-0.1 0.1,-0.3 0,-0.4 l -0.4,-0.5 0.5,-1.2 c 0.1,-0.1 0,-0.3 -0.1,-0.4 -0.3,0 -0.4,0.1 -0.5,0.2"
   class="st0" />
	<path
   inkscape:connector-curvature="0"
   id="path2024"
   clip-path="url(#SVGID_2_)"
   d="m 47.1,18.9 c 0.2,-0.2 0.3,-0.5 0.4,-0.9 0.1,-0.3 0.1,-0.7 0.1,-1.1 0,-0.7 -0.1,-1.3 -0.4,-1.7 -0.3,-0.4 -0.7,-0.7 -1.2,-0.8 -0.5,-0.2 -1.1,-0.2 -1.8,-0.2 h -2.8 v 10.3 h 2.3 v -4.6 h 0.6 l 1.1,4.6 h 2.3 l -1.4,-5 c 0.4,-0.2 0.6,-0.4 0.8,-0.6 z m -1.7,-1 c -0.1,0.2 -0.2,0.4 -0.4,0.5 -0.2,0.1 -0.4,0.2 -0.7,0.2 h -0.6 v -2.8 h 0.7 c 0.4,0 0.7,0.1 0.9,0.4 0.2,0.2 0.2,0.6 0.2,1 0,0.2 -0.1,0.5 -0.1,0.7 z m -7.6,2 h 1.8 v -1.6 h -1.8 v -2.6 h 2.3 v -1.5 h -4.6 v 10.3 h 4.6 V 23 h -2.4 v -3.1 z m -20.9,-5.7 -1.2,6 -1.1,-6 H 12.2 L 12,24.5 h 1.6 l 0.2,-6.9 1.3,6.9 h 1.4 l 1.2,-6.8 0.2,6.8 h 1.6 L 19.3,14.2 Z m 17.5,0 h -2.2 l -1.7,4.2 v -4.2 h -2.3 v 10.3 h 2.3 v -4.1 l 0.2,-0.4 1.5,4.5 h 2.3 l -2,-5.6 z m 19.6,7 -1.1,-7 H 51 l 1.9,10.3 h 2.4 L 57.2,14.2 H 55 Z m -31.5,-7 -1.9,10.3 h 2.1 l 0.4,-2.2 h 1.5 l 0.3,2.2 H 27 L 25.1,14.2 Z m 0.8,6.7 0.5,-4 0.5,4 z M 62,19 61.1,18.3 c -0.3,-0.3 -0.5,-0.5 -0.7,-0.8 -0.2,-0.2 -0.3,-0.6 -0.3,-0.9 0,-0.2 0,-0.4 0.1,-0.5 0.1,-0.2 0.3,-0.3 0.5,-0.3 0.2,0 0.3,0.1 0.4,0.2 0.1,0.1 0.2,0.3 0.2,0.5 0,0.2 0,0.5 0.1,0.8 l 2,-0.2 c 0,-0.3 0,-0.6 -0.1,-1 -0.1,-0.3 -0.2,-0.7 -0.4,-1 -0.2,-0.3 -0.4,-0.5 -0.8,-0.7 -0.3,-0.2 -0.8,-0.3 -1.3,-0.3 -0.9,0 -1.6,0.2 -2.1,0.7 -0.5,0.5 -0.8,1.1 -0.8,2 0,0.6 0.1,1.1 0.4,1.6 0.3,0.4 0.6,0.8 1,1.1 l 0.9,0.8 c 0.3,0.3 0.6,0.6 0.8,0.9 0.2,0.3 0.3,0.7 0.3,1.1 0,0.2 0,0.3 -0.1,0.5 C 61.1,23 61,23 60.7,23 60.5,23 60.4,22.9 60.2,22.8 60.1,22.7 60,22.5 59.9,22.2 59.8,21.9 59.8,21.6 59.8,21.1 l -1.9,0.3 c 0,0.8 0.1,1.4 0.4,1.9 0.2,0.5 0.5,0.8 1,1.1 0.4,0.2 1,0.3 1.6,0.3 0.5,0 1,-0.1 1.4,-0.3 0.4,-0.2 0.7,-0.5 0.9,-0.9 0.2,-0.4 0.3,-0.8 0.3,-1.3 0,-0.7 -0.2,-1.3 -0.5,-1.8 -0.2,-0.6 -0.6,-1.1 -1,-1.4 z m 2.7,5.5 h 2 v -2 h -2 z M 89.5,22.1 C 89.4,22 89.2,22 89.1,22.1 L 88.6,22.5 87.4,22 c -0.1,-0.1 -0.3,0 -0.4,0.1 -0.1,0.1 0,0.3 0.1,0.4 l 1.2,0.5 v 0.6 c 0,0.2 0.1,0.3 0.3,0.3 0.1,0 0.3,-0.1 0.3,-0.3 v -0.7 l 0.5,-0.5 c 0.2,0 0.2,-0.1 0.1,-0.3 z m -13.7,-11 h 0.6 l 0.4,1.2 c 0.1,0.1 0.2,0.2 0.3,0.2 0.1,-0.1 0.2,-0.2 0.2,-0.3 L 77,10.9 77.5,10.5 c 0.1,-0.1 0.1,-0.3 0,-0.4 -0.1,-0.1 -0.3,-0.1 -0.4,0 l -0.5,0.5 h -0.7 c -0.1,0 -0.3,0.1 -0.3,0.3 0,0 0.1,0.2 0.2,0.2 z M 87,16.8 c 0.1,0.1 0.2,0.2 0.3,0.2 l 1.2,-0.4 0.4,0.5 c 0.1,0.1 0.3,0.1 0.4,0 0.1,-0.1 0.1,-0.3 0,-0.4 l -0.5,-0.5 v -0.7 c 0,-0.1 -0.1,-0.3 -0.3,-0.3 -0.1,0 -0.3,0.1 -0.3,0.3 v 0.6 L 87,16.5 c 0,0 -0.1,0.1 0,0.3 z m -3.4,-4.5 0.5,-1.2 h 0.6 c 0.2,0 0.3,-0.1 0.3,-0.3 0,-0.1 -0.1,-0.3 -0.3,-0.3 H 84 L 83.6,10 c -0.1,-0.1 -0.3,-0.1 -0.4,0 -0.1,0.1 -0.1,0.3 0,0.4 l 0.4,0.5 -0.5,1.2 c -0.1,0.1 0,0.3 0.1,0.4 0.2,0 0.4,-0.1 0.4,-0.2 z m 0.5,15.1 H 83.5 L 83,26.2 C 83,26 82.8,26 82.7,26 c -0.1,0.1 -0.2,0.2 -0.2,0.3 l 0.4,1.2 -0.4,0.5 c -0.1,0.1 -0.1,0.3 0,0.4 0.1,0.1 0.3,0.1 0.4,0 l 0.5,-0.5 h 0.7 c 0.1,0 0.3,-0.1 0.3,-0.3 0,-0.1 -0.1,-0.2 -0.3,-0.2 z m 2.6,-2.6 -0.6,0.2 -0.9,-0.9 c 1.2,-1.2 1.9,-2.8 2,-4.5 h 1.1 l 0.3,0.6 c 0.1,0.1 0.2,0.2 0.4,0.1 0,-0.1 0,-0.3 0,-0.4 L 88.7,19.2 89,18.5 c 0.1,-0.1 0,-0.3 -0.1,-0.4 -0.1,-0.1 -0.3,0 -0.4,0.1 L 88.2,19 H 87.1 C 87,17.3 86.4,15.8 85.3,14.6 l 0.8,-0.8 0.6,0.2 c 0.1,0.1 0.3,0 0.4,-0.2 0.1,-0.1 0,-0.3 -0.2,-0.4 L 86.2,13.1 86,12.6 c -0.1,-0.1 -0.2,-0.2 -0.4,-0.2 -0.1,0.1 -0.2,0.2 -0.2,0.4 l 0.2,0.6 -0.8,0.8 C 83.6,13.1 82.1,12.4 80.4,12.4 V 11.2 L 81,10.9 c 0.1,-0.1 0.2,-0.2 0.1,-0.4 C 81,10.4 80.9,10.3 80.7,10.4 L 80,10.7 79.3,10.4 c -0.1,-0.1 -0.3,0 -0.4,0.1 -0.1,0.1 0,0.3 0.1,0.4 l 0.6,0.3 v 1.2 c -1.7,0.1 -3.3,0.8 -4.4,1.9 l -0.8,-0.8 0.2,-0.6 c 0.1,-0.1 0,-0.3 -0.2,-0.4 -0.1,-0.1 -0.3,0 -0.4,0.2 l -0.3,0.7 -0.7,0.3 c -0.1,0.1 -0.2,0.2 -0.2,0.4 0.1,0.1 0.2,0.2 0.4,0.2 l 0.6,-0.2 0.8,0.8 c -1,1.2 -1.7,2.7 -1.8,4.3 H 71.7 L 72,18.4 c -0.1,-0.1 -0.2,-0.2 -0.4,-0.1 -0.1,0.1 -0.2,0.2 -0.1,0.4 l 0.3,0.7 -0.3,0.7 c -0.1,0.1 0,0.3 0.1,0.4 0.1,0.1 0.3,0 0.4,-0.1 l 0.3,-0.6 h 1.1 c 0.1,1.7 0.8,3.3 1.9,4.4 L 74.5,25 73.9,24.8 c -0.1,-0.1 -0.3,0 -0.4,0.2 -0.1,0.1 0,0.3 0.2,0.4 l 0.7,0.3 0.3,0.7 c 0.1,0.1 0.2,0.2 0.4,0.2 0.1,-0.1 0.2,-0.2 0.2,-0.4 l -0.2,-0.6 0.8,-0.8 c 1.2,1 2.7,1.7 4.3,1.8 v 1.2 l -0.6,0.3 c -0.1,0.1 -0.2,0.2 -0.1,0.4 0.1,0.1 0.2,0.2 0.4,0.1 l 0.7,-0.3 0.7,0.3 c 0.1,0.1 0.3,0 0.4,-0.1 0.1,-0.1 0,-0.3 -0.1,-0.4 L 81,27.8 v -1.2 c 1.6,-0.1 3.1,-0.7 4.3,-1.7 l 0.9,0.9 -0.7,0.2 c -0.1,0.1 0,0.3 0.2,0.4 0.1,0.1 0.3,0 0.4,-0.2 l 0.3,-0.7 0.7,-0.3 c 0.1,-0.1 0.2,-0.2 0.2,-0.4 -0.3,0 -0.5,-0.1 -0.6,0 z m -6.5,0.8 c -3.5,0 -6.3,-2.8 -6.3,-6.3 0,-3.5 2.8,-6.3 6.3,-6.3 3.5,0 6.3,2.8 6.3,6.3 0,3.5 -2.8,6.3 -6.3,6.3 z M 73.5,22 C 73.4,21.9 73.3,21.8 73.2,21.8 L 72,22.3 71.6,21.8 c -0.1,-0.1 -0.3,-0.1 -0.4,0 -0.1,0.1 -0.1,0.3 0,0.4 l 0.5,0.5 v 0.7 c 0,0.1 0.1,0.3 0.3,0.3 0.1,0 0.3,-0.1 0.3,-0.3 v -0.6 l 1.2,-0.4 c 0,-0.1 0.1,-0.3 0,-0.4 z m -2.1,-5.4 0.5,-0.4 1.2,0.5 c 0.1,0.1 0.3,0 0.4,-0.1 0.1,-0.1 0,-0.3 -0.1,-0.4 l -1.2,-0.5 v -0.6 c 0,-0.1 -0.1,-0.3 -0.3,-0.3 -0.2,0 -0.3,0.1 -0.3,0.3 v 0.7 L 71,16.2 c -0.1,0.1 -0.1,0.3 0,0.4 0.1,0.1 0.3,0.1 0.4,0 z m 5.8,9.6 -0.5,1.2 h -0.6 c -0.2,0 -0.3,0.1 -0.3,0.3 0,0.2 0.1,0.3 0.3,0.3 h 0.7 l 0.5,0.5 c 0.1,0.1 0.3,0.1 0.4,0 0.1,-0.1 0.1,-0.3 0,-0.4 l -0.4,-0.5 0.5,-1.2 c 0.1,-0.1 0,-0.3 -0.1,-0.4 -0.3,0 -0.4,0.1 -0.5,0.2 z"
   class="st1" />
</g>
</svg>
