<?xml version="1.0" standalone="no"?>
<!DOCTYPE svg PUBLIC "-//W3C//DTD SVG 20010904//EN"
 "http://www.w3.org/TR/2001/REC-SVG-20010904/DTD/svg10.dtd">
<svg version="1.0" xmlns="http://www.w3.org/2000/svg"
 width="700.000000pt" height="700.000000pt" viewBox="0 0 700.000000 700.000000"
 preserveAspectRatio="xMidYMid meet">
<metadata>
Created by potrace 1.11, written by Peter Selinger 2001-2013
</metadata>
<g transform="translate(0.000000,700.000000) scale(0.100000,-0.100000)"
fill="#000000" stroke="none">
<path d="M2342 6950 c-58 -26 -109 -67 -151 -120 -35 -44 -38 -45 -76 -39 -82
14 -200 -4 -253 -39 -52 -34 -67 -111 -32 -167 31 -51 105 -71 170 -48 38 14
91 5 117 -19 13 -12 23 -25 23 -29 0 -5 37 -95 82 -200 78 -184 111 -237 148
-240 8 -1 26 -3 40 -4 50 -5 113 44 124 96 7 37 -5 75 -88 277 -42 101 -76
194 -76 207 0 30 41 78 89 106 95 53 96 175 1 224 -38 20 -66 19 -118 -5z"/>
<path d="M4570 6949 c-34 -13 -70 -68 -72 -111 -1 -42 31 -100 65 -115 41 -19
85 -63 92 -92 5 -22 -14 -76 -80 -236 -48 -115 -88 -220 -90 -235 -5 -43 28
-104 67 -123 40 -19 95 -16 131 7 28 19 33 28 142 284 50 119 85 186 98 193
12 7 41 9 76 4 131 -17 173 -4 205 62 37 78 -10 155 -113 183 -45 12 -159 16
-198 7 -18 -5 -29 4 -57 43 -51 71 -161 141 -218 139 -13 0 -34 -5 -48 -10z"/>
<path d="M3196 6728 c-53 -40 -65 -103 -31 -168 15 -29 69 -60 104 -60 34 0
101 -31 112 -52 9 -17 14 -276 6 -285 -2 -1 -34 -5 -72 -8 -75 -6 -158 -15
-184 -20 -9 -1 -50 -8 -91 -15 -437 -70 -901 -287 -1256 -587 l-51 -43 -96 99
c-104 106 -111 121 -82 184 8 18 26 47 40 66 74 101 -32 236 -148 187 -56 -23
-135 -143 -151 -230 -4 -20 -10 -36 -14 -37 -89 -9 -214 -76 -253 -136 -11
-16 -19 -46 -19 -72 0 -37 6 -49 40 -83 35 -35 44 -39 82 -37 40 3 77 18 105
46 20 18 82 35 107 29 13 -3 64 -49 115 -102 l91 -96 -58 -66 c-360 -411 -584
-946 -636 -1520 -2 -24 -7 -47 -11 -50 -11 -11 -265 -2 -286 11 -23 14 -36 45
-49 117 -7 39 -19 64 -40 85 -26 26 -38 30 -85 30 -48 0 -58 -4 -86 -31 -55
-55 -50 -166 13 -286 l30 -56 -25 -44 c-64 -110 -79 -247 -32 -294 38 -39 102
-51 149 -29 37 18 76 81 76 123 0 32 16 68 41 91 21 19 34 21 161 21 l138 0 1
-32 c11 -375 144 -828 348 -1183 90 -156 272 -411 303 -423 20 -9 2 -35 -87
-121 -94 -93 -95 -94 -137 -89 -27 3 -64 19 -97 42 -31 21 -65 36 -83 36 -88
0 -150 -91 -118 -175 19 -50 112 -115 206 -145 l56 -17 25 -74 c25 -77 76
-158 115 -183 64 -41 146 -18 179 51 26 53 20 88 -27 158 -56 83 -51 100 62
216 l97 98 51 -46 c80 -71 262 -205 366 -268 325 -199 718 -335 1065 -371 39
-3 77 -8 85 -10 8 -1 30 -3 48 -3 l32 -1 0 -133 c0 -106 -3 -137 -16 -156 -19
-26 -71 -51 -108 -51 -70 0 -129 -61 -128 -130 1 -75 58 -123 144 -121 55 1
160 34 200 62 l27 20 53 -30 c52 -29 146 -57 202 -60 69 -3 130 55 130 126 0
73 -48 119 -136 129 -51 6 -108 46 -109 77 -3 69 3 253 9 258 4 4 51 9 104 13
53 3 103 8 110 10 7 3 33 7 58 10 93 11 200 34 320 67 325 91 624 239 890 440
63 48 124 96 134 108 11 11 23 21 27 21 9 0 146 -135 178 -176 31 -39 26 -74
-19 -142 -59 -87 -53 -160 16 -203 98 -60 200 15 259 190 22 64 22 64 72 77
86 22 182 84 208 134 39 76 -7 174 -86 180 -49 4 -66 -1 -112 -31 -61 -40 -99
-50 -130 -34 -28 14 -189 179 -188 192 0 4 27 40 59 78 233 278 386 551 501
894 39 116 66 225 96 386 12 69 18 112 31 245 1 14 2 29 3 33 1 10 249 7 278
-4 27 -10 52 -56 59 -112 12 -83 50 -124 122 -131 27 -2 49 3 71 16 79 50 82
155 9 304 l-30 62 25 38 c48 77 72 188 55 251 -12 45 -66 84 -117 85 -70 1
-116 -44 -127 -123 -4 -24 -12 -56 -19 -70 -27 -51 -38 -54 -187 -54 l-138 0
-1 25 c-1 77 -22 256 -39 340 -6 30 -13 69 -16 85 -20 114 -99 360 -161 500
-111 252 -277 519 -420 675 -13 14 -22 28 -21 32 7 20 185 189 205 194 29 8
54 -1 110 -40 63 -43 99 -49 149 -27 64 29 92 107 60 169 -27 53 -133 120
-222 142 -39 9 -41 12 -53 62 -13 62 -57 143 -101 186 -53 54 -129 55 -181 3
-52 -52 -48 -102 16 -206 44 -71 37 -89 -71 -198 -52 -53 -97 -97 -99 -97 -2
0 -10 6 -17 13 -35 33 -139 118 -193 158 -33 24 -62 46 -65 50 -16 18 -240
150 -340 200 -293 146 -631 243 -925 265 -44 3 -86 7 -92 9 -16 5 -18 257 -3
286 14 25 54 45 109 53 87 13 132 56 133 127 0 21 -7 50 -16 64 -23 35 -74 65
-111 65 -65 0 -224 -54 -241 -82 -3 -5 -17 0 -32 10 -62 44 -137 68 -217 70
-48 2 -66 -2 -89 -20z m544 -832 c14 -2 50 -7 80 -11 199 -23 438 -92 669
-193 185 -81 448 -252 595 -386 l50 -45 -20 -23 c-10 -12 -24 -28 -31 -36 -16
-17 -27 -76 -19 -105 23 -94 148 -124 216 -52 13 14 27 25 30 25 10 0 114
-135 177 -230 211 -316 356 -717 390 -1085 10 -98 9 -410 0 -485 -4 -30 -9
-73 -12 -95 -3 -22 -7 -51 -10 -65 -3 -14 -8 -38 -11 -55 -3 -16 -16 -74 -30
-127 -91 -362 -288 -736 -532 -1010 -25 -28 -26 -28 -46 -9 -35 32 -81 50
-116 46 -108 -14 -149 -135 -73 -216 l24 -26 -48 -43 c-122 -108 -349 -250
-538 -337 -127 -58 -364 -138 -470 -159 -11 -2 -31 -6 -45 -9 -49 -10 -76 -15
-120 -21 -25 -3 -56 -7 -70 -10 -29 -5 -229 -17 -280 -17 -83 0 -296 14 -334
23 -22 5 -61 11 -86 14 -68 8 -274 61 -370 95 -258 90 -502 225 -716 397 -121
97 -122 99 -96 127 42 45 52 99 27 151 -37 78 -139 90 -210 25 -20 -18 -21
-17 -71 44 -137 167 -270 390 -359 602 -45 107 -109 303 -120 368 -3 17 -10
48 -15 67 -4 19 -13 67 -19 105 -6 39 -13 86 -17 105 -9 57 -12 419 -3 498 40
358 132 646 311 972 43 77 171 261 234 334 l66 77 34 -35 c41 -42 90 -54 141
-35 91 35 105 142 29 221 l-26 27 62 52 c35 28 72 59 84 69 95 79 377 241 524
300 30 12 64 26 75 31 143 61 414 124 620 144 39 4 71 9 73 10 5 4 372 -4 402
-9z"/>
<path d="M2084 4718 l1 -423 96 -3 95 -3 0 251 c-1 137 2 250 6 250 3 0 10
-28 14 -62 4 -35 8 -65 9 -68 1 -3 5 -34 9 -70 5 -36 10 -72 11 -80 3 -15 24
-156 29 -195 3 -18 12 -20 73 -23 l70 -3 6 58 c4 32 9 67 11 78 2 11 7 49 11
85 3 36 8 72 10 80 4 15 10 61 25 185 l7 60 2 -70 c1 -38 2 -161 2 -273 l0
-203 97 3 97 3 1 423 1 422 -143 0 -142 0 -6 -27 c-7 -40 -16 -101 -21 -148
-4 -46 -14 -121 -20 -150 -2 -11 -4 -29 -5 -40 -2 -20 -34 166 -45 265 -12
109 2 100 -160 100 l-142 0 1 -422z"/>
<path d="M2919 5138 c-3 -11 -10 -55 -20 -133 -6 -49 -13 -98 -14 -107 -2 -9
-6 -43 -10 -75 -3 -32 -7 -69 -10 -83 -4 -24 -8 -53 -21 -155 -3 -27 -12 -93
-20 -145 -8 -52 -14 -108 -14 -123 l0 -28 112 3 113 3 2 35 c2 31 11 114 12
116 4 4 65 -6 71 -13 5 -4 11 -37 14 -73 2 -36 5 -66 5 -67 1 -2 51 -3 112 -3
l111 0 -6 52 c-4 29 -20 138 -36 243 -16 104 -31 210 -35 235 -3 25 -8 56 -10
70 -3 14 -7 45 -10 70 -6 45 -8 58 -20 138 l-7 42 -159 0 c-87 0 -159 -1 -160
-2z m176 -283 c10 -116 15 -168 21 -217 l5 -46 -38 2 c-21 2 -37 7 -37 12 1 5
5 41 8 79 3 39 8 79 10 90 2 11 7 51 11 88 4 37 9 67 10 65 2 -2 6 -35 10 -73z"/>
<path d="M3402 4715 l0 -426 111 3 111 3 0 163 c0 89 3 159 6 155 4 -5 24 -79
44 -165 l38 -158 114 0 c63 0 114 1 114 3 0 2 -31 107 -69 234 l-69 230 58
174 c32 96 61 182 65 192 7 16 -2 17 -98 17 -91 0 -105 -2 -110 -17 -46 -153
-88 -287 -91 -291 -3 -2 -4 66 -3 152 l2 156 -112 0 -111 0 0 -425z"/>
<path d="M3980 4715 l0 -425 192 2 192 3 0 80 1 80 -83 3 -82 3 0 94 0 94 38
-1 c20 0 52 0 70 1 l32 1 0 80 0 80 -70 0 -70 0 0 80 0 80 75 0 75 0 0 85 0
85 -185 0 -185 0 0 -425z"/>
<path d="M4429 5114 c0 -16 -2 -208 -2 -426 l-2 -398 113 0 112 0 0 190 0 190
24 0 c14 0 28 -6 32 -12 5 -7 8 -91 9 -188 l1 -175 102 -3 102 -3 1 48 c1 88
-2 278 -4 294 -5 30 -38 70 -72 86 l-35 17 37 12 c56 20 71 52 72 164 0 80
-15 138 -46 172 -41 45 -69 51 -260 56 l-183 4 -1 -28z m280 -147 c9 -24 7
-129 -2 -144 -4 -6 -18 -13 -32 -15 l-25 -5 0 97 0 97 26 -5 c14 -2 29 -14 33
-25z"/>
<path d="M3600 3860 c-58 -11 -110 -41 -136 -80 -33 -50 -43 -164 -20 -242 19
-65 42 -91 159 -171 49 -33 96 -71 105 -85 23 -36 22 -130 -3 -148 -22 -16
-25 -17 -44 -5 -10 7 -15 32 -16 85 -1 42 -5 79 -8 83 -11 11 -189 6 -197 -6
-12 -20 5 -171 23 -204 60 -108 271 -141 396 -63 58 37 75 82 74 201 0 147
-28 192 -182 290 -103 67 -111 76 -111 133 0 50 12 72 41 72 25 0 30 -12 30
-75 l1 -55 104 0 103 0 -4 76 c-5 98 -24 131 -97 167 -59 30 -144 40 -218 27z"/>
<path d="M2844 3793 c4 -32 11 -80 16 -108 5 -27 12 -72 15 -100 3 -27 10 -75
15 -105 5 -30 12 -77 15 -105 4 -27 8 -57 10 -65 2 -8 7 -35 10 -60 8 -56 11
-76 26 -172 9 -60 16 -78 28 -79 81 -3 312 -1 316 3 3 2 14 72 25 154 11 82
22 163 24 179 3 17 8 55 11 85 3 30 8 67 11 83 9 58 13 84 19 142 4 33 9 69
10 80 2 11 6 44 10 73 l6 53 -117 -3 c-118 -3 -118 -3 -119 -28 -1 -14 -5 -59
-9 -100 -5 -41 -9 -93 -11 -115 -2 -22 -6 -67 -9 -100 -3 -33 -8 -96 -12 -140
-7 -93 -14 -110 -15 -39 0 27 -2 56 -3 64 -2 8 -6 54 -10 101 -4 47 -9 97 -11
110 -2 13 -6 49 -9 79 -3 30 -8 81 -12 113 l-7 57 -115 0 -114 0 6 -57z"/>
<path d="M3980 3085 c0 -74 2 -85 18 -86 9 0 44 -1 77 -2 l60 -1 3 87 3 87
-81 0 -80 0 0 -85z"/>
<path d="M4440 2566 c-119 -24 -161 -76 -168 -208 -4 -64 0 -87 18 -133 23
-57 28 -62 199 -184 65 -47 75 -64 75 -138 0 -46 -17 -73 -45 -73 -26 0 -33
17 -35 85 -2 33 -3 68 -3 78 -1 16 -11 17 -103 15 l-103 -3 3 -70 c4 -98 19
-144 58 -181 49 -46 119 -67 212 -62 121 5 203 56 219 135 9 51 6 177 -6 220
-17 60 -49 94 -162 169 -55 37 -104 75 -110 86 -14 27 -14 95 1 113 16 20 46
19 54 -1 3 -9 6 -38 6 -65 l0 -49 104 0 105 0 -5 72 c-2 40 -12 88 -22 107
-35 72 -170 112 -292 87z"/>
<path d="M2201 2521 c4 -20 10 -61 13 -91 6 -52 9 -75 21 -145 6 -37 36 -231
40 -265 2 -14 11 -70 19 -125 8 -55 18 -118 21 -139 3 -22 8 -42 11 -45 3 -3
79 -6 169 -6 l163 0 11 75 c6 41 13 95 16 120 3 25 7 56 10 70 2 14 7 50 10
80 4 30 8 66 10 80 2 14 7 50 10 80 4 30 9 63 11 74 2 10 6 44 9 75 4 31 8 63
10 71 2 8 7 40 10 71 l6 55 -115 1 c-78 0 -116 -3 -117 -11 0 -6 -2 -18 -3
-26 -4 -16 -16 -136 -22 -210 -17 -218 -26 -305 -30 -309 -2 -2 -4 13 -5 35
-1 21 -2 50 -4 64 -1 14 -5 66 -9 115 -5 50 -9 92 -11 95 -2 3 -6 43 -10 90
-5 47 -9 94 -11 105 -1 11 -3 27 -3 36 -1 13 -19 15 -120 15 l-118 1 8 -36z"/>
<path d="M2810 2131 l0 -426 100 1 c55 1 105 2 110 3 6 1 10 150 10 424 l0
423 -110 0 -110 0 0 -425z"/>
<path d="M3120 2461 c-1 -187 -1 -587 0 -671 l0 -85 108 0 107 1 3 192 c2 183
3 192 22 192 41 0 49 -34 47 -212 -2 -141 0 -168 13 -171 13 -3 157 -2 185 2
9 1 10 77 6 297 -1 64 -33 114 -81 131 l-35 11 30 7 c67 17 87 60 86 188 -1
115 -45 183 -131 202 -19 5 -108 9 -197 10 l-163 2 0 -96z m274 -66 c11 -12
14 -33 13 -85 -2 -38 -5 -71 -8 -74 -2 -2 -16 -7 -32 -11 l-27 -7 0 96 c0 88
2 96 19 96 11 0 26 -7 35 -15z"/>
<path d="M3696 2216 c1 -216 5 -356 12 -381 13 -44 57 -92 112 -121 49 -26
221 -27 267 -1 45 24 72 54 95 106 19 40 20 66 20 355 0 171 -1 327 -1 347
l-1 36 -107 -1 -108 -1 -3 -351 c-2 -302 -4 -354 -18 -365 -12 -10 -18 -9 -31
3 -13 14 -15 63 -17 364 l-1 349 -110 1 -110 1 1 -341z"/>
<path d="M302 5200 c-17 -11 -38 -29 -46 -42 -33 -51 -50 -190 -32 -263 5 -18
-2 -28 -34 -50 -72 -50 -150 -164 -150 -221 0 -64 57 -124 119 -126 39 -1 84
18 102 44 92 134 97 136 260 68 268 -113 311 -128 348 -124 48 6 75 25 96 70
31 65 4 138 -63 170 -20 10 -119 52 -220 95 -101 43 -190 86 -198 96 -15 18
-14 65 1 155 17 101 -97 180 -183 128z"/>
<path d="M6592 5173 c-56 -27 -78 -95 -57 -168 15 -49 10 -94 -13 -117 -10
-10 -114 -58 -232 -108 -220 -91 -250 -111 -265 -167 -8 -35 11 -96 39 -122
15 -14 42 -25 68 -28 38 -4 73 7 256 81 117 47 223 86 236 86 32 0 80 -41 108
-92 37 -66 103 -86 173 -52 34 16 65 71 65 114 0 43 -47 117 -115 185 -62 60
-71 73 -65 95 12 43 2 164 -17 215 -31 84 -105 116 -181 78z"/>
<path d="M769 2520 c-41 -16 -141 -55 -223 -89 -82 -34 -161 -61 -175 -61 -30
0 -73 40 -109 101 -25 42 -58 59 -114 59 -35 0 -47 -6 -80 -40 -29 -32 -38
-49 -38 -76 0 -64 76 -181 150 -230 36 -24 37 -26 30 -66 -11 -58 -2 -161 18
-216 34 -92 136 -121 203 -56 44 42 52 76 34 144 -15 58 -9 100 18 126 12 12
90 48 172 82 295 119 309 128 322 205 6 41 -17 96 -49 116 -47 29 -81 29 -159
1z"/>
<path d="M6068 2511 c-64 -34 -86 -121 -45 -181 23 -35 63 -55 348 -174 99
-41 139 -63 149 -81 12 -23 10 -72 -5 -135 -18 -77 36 -148 119 -155 60 -5
110 38 132 111 16 56 21 164 10 205 -6 21 -3 29 17 41 77 51 167 176 167 232
0 66 -56 126 -119 128 -39 1 -84 -18 -102 -44 -95 -139 -91 -139 -310 -48 -96
40 -193 81 -217 92 -59 26 -105 29 -144 9z"/>
<path d="M2334 971 c-35 -21 -72 -93 -175 -336 -68 -163 -80 -174 -167 -160
-108 17 -156 6 -188 -43 -52 -79 -3 -173 104 -202 50 -13 155 -17 193 -7 22 6
30 1 55 -33 38 -52 129 -124 177 -140 150 -48 236 140 104 226 -117 75 -117
77 -16 315 45 107 88 210 95 230 22 62 4 117 -49 149 -41 25 -93 25 -133 1z"/>
<path d="M4507 969 c-37 -28 -55 -66 -52 -109 1 -19 41 -131 89 -249 47 -117
86 -224 86 -236 0 -31 -31 -67 -88 -104 -55 -35 -72 -64 -72 -123 0 -35 6 -47
40 -80 32 -29 49 -38 76 -38 64 0 181 76 230 150 24 36 26 37 67 29 23 -4 68
-6 101 -3 113 7 178 42 197 105 31 104 -57 186 -166 155 -45 -13 -45 -13 -96
-3 -42 9 -39 3 -123 209 -98 240 -121 285 -155 302 -42 22 -100 20 -134 -5z"/>
</g>
</svg>
